<svg width="52" height="35" viewBox="0 0 52 35" fill="none" xmlns="http://www.w3.org/2000/svg">
<path d="M40.4468 27.972L29.962 2.78541C29.0142 0.510127 26.4021 -0.56642 24.1269 0.381338C22.9149 0.886588 22.0497 1.86407 21.6402 3.00996L11.2446 27.9885C10.2969 30.2638 11.3734 32.8759 13.6487 33.8236C15.924 34.7714 18.5361 33.6949 19.4838 31.4196L25.8473 16.1267L32.2043 31.3998C33.152 33.675 35.7641 34.7516 38.0394 33.8038C40.3147 32.8561 41.3912 30.244 40.4435 27.9687L40.4468 27.972Z" fill="url(#paint0_linear_1151_668170)"/>
<path d="M20.6005 23.9407C18.7809 23.8713 17.3114 21.8933 15.4258 17.9536C11.3376 9.4205 10.5021 7.34997 8.58344 2.74327C7.64229 0.484506 5.01037 -0.601948 2.7483 0.339205C0.473017 1.28366 -0.603529 3.89577 0.344228 6.17105L10.8785 31.4765C11.7107 33.481 13.8374 34.5509 15.8848 34.1348C16.4099 34.0457 17.2685 33.8211 18.0742 33.1838C18.7182 32.6719 19.1012 32.0709 19.3588 31.5888C19.983 30.4264 21.3699 27.2595 23.0145 22.9434C22.4366 23.4387 21.5912 23.977 20.6005 23.9407Z" fill="white"/>
<path d="M42.0653 23.9407C40.2458 23.8713 38.7762 21.8933 36.8906 17.9536C32.8024 9.4205 31.9669 7.34997 30.0483 2.74327C29.1071 0.484506 26.4752 -0.601948 24.2131 0.339205C21.9379 1.28366 20.8613 3.89577 21.8091 6.17105L32.3434 31.4765C33.1756 33.481 35.3022 34.5509 37.3497 34.1348C37.8747 34.0457 38.7333 33.8211 39.5391 33.1838C40.183 32.6719 40.5661 32.0709 40.8237 31.5888C41.4478 30.4264 42.8348 27.2595 44.4793 22.9434C43.9014 23.4387 43.056 23.977 42.0653 23.9407Z" fill="white"/>
<path fill-rule="evenodd" clip-rule="evenodd" d="M39.5352 11.3561C41.4194 15.2918 42.8883 17.2679 44.707 17.3372C45.6821 17.3729 46.5164 16.852 47.0934 16.3633C47.1653 16.2305 47.2312 16.0927 47.2905 15.9503L51.3391 6.21844C52.2869 3.94316 51.2103 1.33105 48.9351 0.383291C46.6598 -0.564467 44.0477 0.51208 43.0999 2.78736L39.5352 11.3561Z" fill="url(#paint1_radial_1151_668170)"/>
<defs>
<linearGradient id="paint0_linear_1151_668170" x1="10.9045" y1="17.1008" x2="40.7902" y2="17.1008" gradientUnits="userSpaceOnUse">
<stop stop-color="white"/>
<stop offset="1" stop-color="#344897"/>
</linearGradient>
<radialGradient id="paint1_radial_1151_668170" cx="0" cy="0" r="1" gradientUnits="userSpaceOnUse" gradientTransform="translate(49.0406 0.944768) rotate(112.86) scale(18.2771 18.2777)">
<stop stop-color="white"/>
<stop offset="1" stop-color="#A3ACD0"/>
</radialGradient>
</defs>
</svg>
