<svg width="98" height="35" viewBox="0 0 98 35" fill="none" xmlns="http://www.w3.org/2000/svg">
<path d="M7.0112 0.400024L0.88208 35H12.7449L15.068 21.9509L19.912 35H33.2577L44.6263 19.6772L44.1815 22.1486H56.0443L59.8997 0.400024H45.5655L27.8206 24.3729L18.874 0.400024H7.0112ZM41.9077 35H82.2414C88.6177 35 94.4009 30.5514 95.2411 25.5592L95.4388 24.3729C96.5263 17.7 92.1271 14.7837 85.8497 14.2894L72.9489 13.2514C71.8615 13.1526 71.2683 12.856 71.466 11.7192C71.6637 10.7306 72.3557 10.2857 73.4432 10.2857H84.3174C85.4048 10.2857 85.998 10.6812 85.8003 11.818H97.6632L97.762 11.3237C98.9483 5.39231 94.7469 0.400024 88.3706 0.400024H72.9489C66.5232 0.400024 60.7895 5.39231 59.8503 10.2857L59.702 11.0766C58.4663 18.2437 63.0138 20.6657 69.2912 21.16L82.2414 22.1486C83.3289 22.2474 83.922 22.5934 83.7243 23.582C83.5266 24.7189 82.8346 25.1143 81.7472 25.1143H43.6872L41.9077 35Z" fill="#915EFF"/>
</svg>
